<svg xmlns="http://www.w3.org/2000/svg" width="48" height="48" viewBox="0 0 1254 1254">
<circle cx="627" cy="627" r="627" fill="#0755ae"/>
<g transform="translate(0,1254) scale(0.1,-0.1)" stroke="none"><g fill="#ffffff"><path d="M5960 12434 c-25 -2 -108 -8 -185 -14 -761 -59 -1527 -271 -2224
-615 -270 -134 -437 -229 -666 -379 -706 -465 -1306 -1065 -1771 -1771 -517
-786 -855 -1707 -968 -2635 -35 -284 -41 -394 -41 -755 0 -442 18 -659 86
-1053 120 -701 378 -1415 734 -2032 406 -705 979 -1352 1630 -1843 786 -593
1705 -991 2667 -1156 394 -68 611 -86 1053 -86 442 0 659 18 1053 86 701 120
1415 378 2032 734 705 406 1352 979 1843 1630 593 786 991 1705 1156 2667 68
394 86 611 86 1053 0 442 -18 659 -86 1053 -120 701 -378 1415 -734 2032 -476
826 -1157 1548 -1960 2076 -693 455 -1496 776 -2305 918 -374 66 -602 86
-1015 91 -187 1 -360 1 -385 -1z m720 -275 c664 -50 1330 -235 1940 -538 678
-337 1239 -776 1749 -1366 581 -673 1009 -1565 1190 -2480 135 -682 136 -1506
2 -2165 -178 -877 -521 -1630 -1053 -2313 -670 -859 -1563 -1489 -2589 -1827
-1183 -390 -2431 -350 -3604 115 -704 279 -1401 752 -1914 1297 -451 481 -805
1009 -1048 1563 -190 432 -334 927 -408 1396 -77 497 -79 1125 -4 1639 98 669
309 1306 619 1866 277 500 576 893 976 1284 427 417 871 731 1414 999 843 417
1789 601 2730 530z"/>
<path d="M4595 9864 c-304 -55 -544 -181 -766 -403 -128 -128 -173 -185 -248
-317 -105 -182 -170 -397 -191 -624 -8 -89 -10 -643 -8 -1940 4 -1638 6 -1823
21 -1895 83 -404 286 -723 591 -927 118 -79 219 -129 347 -171 206 -69 165
-67 1446 -67 l1153 0 0 1203 0 1202 -675 0 -675 0 0 -582 0 -583 -285 0 -285
0 0 2560 0 2560 -172 -1 c-102 0 -206 -7 -253 -15z"/></g><g fill="#141d2b"><path d="M7520 6701 l0 -3181 214 0 c231 0 318 8 461 45 131 33 254 89 373
168 297 198 498 508 563 865 21 116 22 131 24 1857 2 1920 -1 2114 -39 2275
-77 333 -247 613 -496 822 -147 123 -316 218 -476 268 -145 44 -205 53 -417
57 l-207 5 0 -3181z"/></g><g fill="#fd4e4e"><path d="M5590 8695 l0 -1195 675 0 675 0 0 1195 0 1195 -675 0 -675 0 0
-1195z"/></g></g>
</svg>
